<?xml version="1.0" encoding="UTF-8" standalone="no"?>
<!-- Created with Inkscape (http://www.inkscape.org/) -->

<svg
   xmlns:dc="http://purl.org/dc/elements/1.1/"
   xmlns:cc="http://creativecommons.org/ns#"
   xmlns:rdf="http://www.w3.org/1999/02/22-rdf-syntax-ns#"
   xmlns:svg="http://www.w3.org/2000/svg"
   xmlns="http://www.w3.org/2000/svg"
   xmlns:xlink="http://www.w3.org/1999/xlink"
   xmlns:sodipodi="http://sodipodi.sourceforge.net/DTD/sodipodi-0.dtd"
   xmlns:inkscape="http://www.inkscape.org/namespaces/inkscape"
   inkscape:export-ydpi="225.75999"
   inkscape:export-xdpi="225.75999"
   sodipodi:docname="icon.svg"
   inkscape:version="0.48.5 r10040"
   version="1.1"
   id="svg2985"
   height="64px"
   width="64px"
   enable-background="new">
  <sodipodi:namedview
     id="base"
     pagecolor="#ffffff"
     bordercolor="#666666"
     borderopacity="1.0"
     inkscape:pageopacity="0.0"
     inkscape:pageshadow="2"
     inkscape:zoom="5.6568543"
     inkscape:cx="25.424477"
     inkscape:cy="34.595446"
     inkscape:current-layer="layer5"
     showgrid="true"
     inkscape:document-units="px"
     inkscape:grid-bbox="true"
     inkscape:window-width="1362"
     inkscape:window-height="710"
     inkscape:window-x="0"
     inkscape:window-y="56"
     inkscape:window-maximized="0"
     showguides="true"
     inkscape:guide-bbox="true"
     inkscape:object-paths="true"
     inkscape:object-nodes="true"
     inkscape:snap-smooth-nodes="true"
     inkscape:snap-midpoints="true"
     inkscape:snap-intersection-paths="true"
     inkscape:snap-grids="true"
     fit-margin-top="1"
     fit-margin-right="1"
     fit-margin-bottom="1"
     fit-margin-left="1">
    <inkscape:grid
       type="xygrid"
       id="grid2995"
       empspacing="4"
       visible="true"
       enabled="true"
       snapvisiblegridlinesonly="true" />
    <sodipodi:guide
       orientation="0.70710678,0.70710678"
       position="24.64,21.660001"
       id="guide3822" />
    <sodipodi:guide
       orientation="0.70710678,0.70710678"
       position="34,47.300001"
       id="guide3824" />
    <sodipodi:guide
       orientation="0.70710678,0.70710678"
       position="39.08,42.300001"
       id="guide3826" />
    <sodipodi:guide
       orientation="0.70710678,0.70710678"
       position="26.96,32.860001"
       id="guide3828" />
  </sodipodi:namedview>
  <defs
     id="defs2987">
    <linearGradient
       id="linearGradient11029">
      <stop
         id="stop11031"
         offset="0"
         style="stop-color:#000000;stop-opacity:1;" />
      <stop
         id="stop11033"
         offset="1"
         style="stop-color:#000000;stop-opacity:0;" />
    </linearGradient>
    <linearGradient
       id="linearGradient3874">
      <stop
         style="stop-color:#000000;stop-opacity:0.35897437;"
         offset="0"
         id="stop3876" />
      <stop
         style="stop-color:#000000;stop-opacity:0;"
         offset="1"
         id="stop3878" />
    </linearGradient>
    <linearGradient
       id="linearGradient3767">
      <stop
         style="stop-color:#532448;stop-opacity:1;"
         offset="0"
         id="stop3769" />
      <stop
         style="stop-color:#7b2e58;stop-opacity:1;"
         offset="1"
         id="stop3771" />
    </linearGradient>
    <linearGradient
       inkscape:collect="always"
       xlink:href="#linearGradient3767"
       id="linearGradient3773"
       x1="52"
       y1="52"
       x2="12"
       y2="12"
       gradientUnits="userSpaceOnUse" />
    <linearGradient
       inkscape:collect="always"
       xlink:href="#linearGradient3767-0"
       id="linearGradient3773-9"
       x1="52"
       y1="52"
       x2="12"
       y2="12"
       gradientUnits="userSpaceOnUse" />
    <linearGradient
       id="linearGradient3767-0">
      <stop
         style="stop-color:#532448;stop-opacity:1;"
         offset="0"
         id="stop3769-1" />
      <stop
         style="stop-color:#7b2e58;stop-opacity:1;"
         offset="1"
         id="stop3771-2" />
    </linearGradient>
    <linearGradient
       inkscape:collect="always"
       xlink:href="#linearGradient3874"
       id="linearGradient3880"
       x1="3.3599999"
       y1="11.299999"
       x2="31.360001"
       y2="39.299999"
       gradientUnits="userSpaceOnUse" />
    <filter
       inkscape:label="Drop Shadow"
       id="filter4086"
       style="color-interpolation-filters:sRGB;">
      <feFlood
         flood-opacity="0.46000000000000002"
         flood-color="rgb(0,0,0)"
         result="flood"
         id="feFlood4088" />
      <feComposite
         in="flood"
         in2="SourceGraphic"
         operator="in"
         result="composite1"
         id="feComposite4090" />
      <feGaussianBlur
         stdDeviation="1"
         result="blur"
         id="feGaussianBlur4092"
         in="composite" />
      <feOffset
         dx="1"
         dy="1"
         result="offset"
         id="feOffset4094" />
      <feComposite
         in="SourceGraphic"
         in2="offset"
         operator="over"
         result="composite2"
         id="feComposite4096" />
    </filter>
    <linearGradient
       gradientUnits="userSpaceOnUse"
       y2="56"
       x2="51.82"
       y1="31.179998"
       x1="27"
       id="linearGradient11035"
       xlink:href="#linearGradient11029"
       inkscape:collect="always" />
    <linearGradient
       inkscape:collect="always"
       xlink:href="#linearGradient3767-2"
       id="linearGradient3773-7"
       x1="52"
       y1="52"
       x2="12"
       y2="12"
       gradientUnits="userSpaceOnUse" />
    <linearGradient
       id="linearGradient3767-2">
      <stop
         style="stop-color:#532448;stop-opacity:1;"
         offset="0"
         id="stop3769-8" />
      <stop
         style="stop-color:#7b2e58;stop-opacity:1;"
         offset="1"
         id="stop3771-0" />
    </linearGradient>
    <clipPath
       clipPathUnits="userSpaceOnUse"
       id="clipPath15347">
      <path
         style="fill:#ffffff;fill-opacity:1;stroke:none;display:inline"
         clip-path="none"
         d="m 60,32.292135 c 0,15.463973 -12.536027,28 -28,28 -15.463973,0 -28,-12.536027 -28,-28 C 4,16.828161 16.536027,4.2921345 32,4.2921345 c 15.463973,0 28,12.5360265 28,28.0000005 z"
         id="path15349"
         inkscape:connector-curvature="0" />
    </clipPath>
  </defs>
  <metadata
     id="metadata2990">
    <rdf:RDF>
      <cc:Work
         rdf:about="">
        <dc:format>image/svg+xml</dc:format>
        <dc:type
           rdf:resource="http://purl.org/dc/dcmitype/StillImage" />
        <dc:title></dc:title>
      </cc:Work>
    </rdf:RDF>
  </metadata>
  <g
     inkscape:label="BG shadow"
     id="layer6"
     inkscape:groupmode="layer"
     style="display:inline"
     sodipodi:insensitive="true">
    <g
       id="g13430"
       style="fill:#300920;fill-opacity:0.94117647;stroke:none">
      <g
         id="g13432"
         style="fill:#300920;fill-opacity:0.94117647;stroke:none;display:inline">
        <path
           style="fill:#300920;fill-opacity:1;stroke:none"
           d="M 32,4 C 16.536027,4 4,16.536027 4,32 c 0,6.958788 2.5484453,13.321317 6.75,18.21875 0.354991,0.413786 0.715544,0.795208 1.09375,1.1875 0.367848,0.381548 0.736177,0.764769 1.125,1.125 1.195278,1.278858 2.491484,2.4317 3.90625,3.46875 4.63373,3.396611 10.34566,5.40625 16.53125,5.40625 15.463973,0 28,-12.536027 28,-28 0,-6.627417 -2.3075,-12.704476 -6.15625,-17.5 C 54.420709,14.872957 53.527799,13.905563 52.5625,13 52.48791,12.93003 52.419103,12.850413 52.34375,12.78125 51.818921,12.225677 51.287111,11.698665 50.71875,11.1875 50.70793,11.1778 50.69833,11.16597 50.6875,11.15625 50.317097,10.824177 49.919047,10.499724 49.53125,10.1875 49.519854,10.178321 49.51141,10.165411 49.5,10.15625 49.111763,9.8446618 48.7173,9.5409183 48.3125,9.25 48.300815,9.2416007 48.292949,9.2271317 48.28125,9.21875 47.875764,8.9282982 47.452488,8.6439331 47.03125,8.375 47.019073,8.3672262 47.01219,8.3515055 47,8.34375 46.578343,8.0754633 46.155331,7.8396934 45.71875,7.59375 45.706567,7.5868894 45.699694,7.5693428 45.6875,7.5625 45.245917,7.3146403 44.799723,7.0679465 44.34375,6.84375 c -0.0085,-0.00418 -0.02274,0.00417 -0.03125,0 C 44.170093,6.773906 44.018755,6.7237342 43.875,6.65625 43.219397,6.3484839 42.557172,6.0384718 41.875,5.78125 41.73997,5.730335 41.604765,5.6738782 41.46875,5.625 c -0.0093,-0.00336 -0.0219,0.00335 -0.03125,0 -0.48238,-0.1727785 -0.97454,-0.3221072 -1.46875,-0.46875 -0.0096,-0.00285 -0.02162,0.00284 -0.03125,0 C 39.443113,5.0101339 38.942873,4.8691427 38.4375,4.75 38.4277,4.74768 38.4161,4.75231 38.40625,4.75 37.900677,4.631391 37.390716,4.4970439 36.875,4.40625 c -0.01014,-0.00178 -0.02111,0.00177 -0.03125,0 C 36.327934,4.316021 35.806364,4.2490818 35.28125,4.1875 35.27099,4.18631 35.26026,4.18868 35.25,4.1875 34.714404,4.1252914 34.200628,4.094042 33.65625,4.0625 33.110716,4.0308143 32.553541,4 32,4 z"
           id="path13434"
           inkscape:connector-curvature="0" />
      </g>
    </g>
  </g>
  <g
     id="layer1"
     inkscape:label="BG"
     inkscape:groupmode="layer"
     style="display:inline"
     sodipodi:insensitive="true">
    <path
       sodipodi:type="arc"
       style="fill:url(#linearGradient3773);fill-opacity:1;stroke:none"
       id="path2997"
       sodipodi:cx="32"
       sodipodi:cy="32"
       sodipodi:rx="28"
       sodipodi:ry="28"
       d="M 60,32 A 28,28 0 1 1 4,32 28,28 0 1 1 60,32 z" />
  </g>
  <g
     inkscape:groupmode="layer"
     id="layer5"
     inkscape:label="Infinite shadow 2">
    <g
       style="font-size:40px;font-style:normal;font-weight:normal;line-height:125%;letter-spacing:0px;word-spacing:0px;opacity:0.18;fill:url(#linearGradient11035);fill-opacity:1;stroke:none;display:inline;font-family:Sans"
       id="text3809-5"
       clip-path="url(#clipPath15347)">
      <g
         style="fill:url(#linearGradient11035);fill-opacity:1"
         id="g10835">
        <g
           style="font-variant:normal;font-stretch:normal;fill:url(#linearGradient11035);fill-opacity:1;font-family:Ubuntu Mono;-inkscape-font-specification:Ubuntu Mono"
           id="g10837">
          <path
             inkscape:connector-curvature="0"
             style="fill:url(#linearGradient11035);fill-opacity:1"
             d="m 31.8,41.019998 c 0.959989,4e-6 1.759988,-0.06666 2.4,-0.2 l 28.284271,28.284271 c -0.640012,0.13334 -1.440011,0.200004 -2.4,0.2 z"
             id="path10839" />
          <path
             inkscape:connector-curvature="0"
             style="fill:url(#linearGradient11035);fill-opacity:1"
             d="m 34.2,40.819998 c 0.666654,-0.159996 1.186653,-0.373329 1.56,-0.64 l 28.284271,28.284271 c -0.373347,0.266671 -0.893346,0.480004 -1.56,0.64 z"
             id="path10841" />
          <path
             inkscape:connector-curvature="0"
             style="fill:url(#linearGradient11035);fill-opacity:1"
             d="m 35.76,40.179998 c 0.373319,-0.293329 0.639986,-0.626662 0.8,-1 l 28.284271,28.284271 c -0.160014,0.373338 -0.426681,0.706671 -0.8,1 z"
             id="path10843" />
          <path
             inkscape:connector-curvature="0"
             style="fill:url(#linearGradient11035);fill-opacity:1"
             d="m 36.56,39.179998 c 0.159985,-0.399994 0.239985,-0.82666 0.24,-1.28 l 28.284271,28.284271 c -1.5e-5,0.45334 -0.08002,0.880006 -0.24,1.28 z"
             id="path10845" />
          <path
             inkscape:connector-curvature="0"
             style="fill:url(#linearGradient11035);fill-opacity:1"
             d="m 36.8,37.899998 c -1.5e-5,-0.666659 -0.160015,-1.226659 -0.48,-1.68 l 28.284271,28.284271 c 0.319985,0.453341 0.479985,1.013341 0.48,1.68 z"
             id="path10847" />
          <path
             inkscape:connector-curvature="0"
             style="fill:url(#linearGradient11035);fill-opacity:1"
             d="m 36.32,36.219998 c -0.137146,-0.205706 -0.296329,-0.399169 -0.47755,-0.58039 l 28.284271,28.284271 c 0.181221,0.181221 0.340404,0.374684 0.47755,0.58039 z"
             id="path10849" />
          <path
             inkscape:connector-curvature="0"
             style="fill:url(#linearGradient11035);fill-opacity:1"
             d="M 35.84245,35.639608 C 35.600814,35.397972 35.319997,35.178102 35,34.979998 l 28.284271,28.284271 c 0.319997,0.198104 0.600814,0.417974 0.84245,0.65961 z"
             id="path10851" />
          <path
             inkscape:connector-curvature="0"
             style="fill:url(#linearGradient11035);fill-opacity:1"
             d="m 35,34.979998 c -0.533346,-0.373323 -1.146678,-0.693323 -1.84,-0.96 l 28.284271,28.284271 c 0.693322,0.266677 1.306654,0.586677 1.84,0.96 z"
             id="path10853" />
          <path
             inkscape:connector-curvature="0"
             style="fill:url(#linearGradient11035);fill-opacity:1"
             d="m 33.16,34.019998 c -0.693344,-0.293322 -1.413343,-0.573322 -2.16,-0.84 l 28.284271,28.284271 c 0.746657,0.266678 1.466656,0.546678 2.16,0.84 z"
             id="path10855" />
          <path
             inkscape:connector-curvature="0"
             style="fill:url(#linearGradient11035);fill-opacity:1"
             d="m 31,33.179998 c -0.720008,-0.266655 -1.440008,-0.559988 -2.16,-0.88 l 28.284271,28.284271 c 0.719992,0.320012 1.439992,0.613345 2.16,0.88 z"
             id="path10857" />
          <path
             inkscape:connector-curvature="0"
             style="fill:url(#linearGradient11035);fill-opacity:1"
             d="m 28.84,32.299998 c -0.693339,-0.319987 -1.320005,-0.706654 -1.88,-1.16 l 28.284271,28.284271 c 0.559995,0.453346 1.186661,0.840013 1.88,1.16 z"
             id="path10859" />
          <path
             inkscape:connector-curvature="0"
             style="fill:url(#linearGradient11035);fill-opacity:1"
             d="M 26.96,31.139998 C 26.87793,31.066138 26.798067,30.99038 26.720416,30.912729 L 55.004687,59.197 c 0.07765,0.07765 0.157513,0.153408 0.239584,0.227269 z"
             id="path10861" />
          <path
             inkscape:connector-curvature="0"
             style="fill:url(#linearGradient11035);fill-opacity:1"
             d="M 26.720416,30.912729 C 26.293456,30.485769 25.933318,30.001525 25.64,29.459998 l 28.284271,28.284271 c 0.293318,0.541527 0.653456,1.025771 1.080416,1.452731 z"
             id="path10863" />
          <path
             inkscape:connector-curvature="0"
             style="fill:url(#linearGradient11035);fill-opacity:1"
             d="m 25.64,29.459998 c -0.34667,-0.666651 -0.520003,-1.479983 -0.52,-2.44 l 28.284271,28.284271 c -3e-6,0.960017 0.17333,1.773349 0.52,2.44 z"
             id="path10865" />
          <path
             inkscape:connector-curvature="0"
             style="fill:url(#linearGradient11035);fill-opacity:1"
             d="m 25.12,27.019998 c -3e-6,-1.706647 0.506663,-3.093313 1.52,-4.16 l 28.284271,28.284271 c -1.013337,1.066687 -1.520003,2.453353 -1.52,4.16 z"
             id="path10867" />
          <path
             inkscape:connector-curvature="0"
             style="fill:url(#linearGradient11035);fill-opacity:1"
             d="m 26.64,22.859998 c 1.013328,-1.066644 2.479993,-1.746643 4.4,-2.04 l 28.284271,28.284271 c -1.920007,0.293357 -3.386672,0.973356 -4.4,2.04 z"
             id="path10869" />
          <path
             inkscape:connector-curvature="0"
             style="fill:url(#linearGradient11035);fill-opacity:1"
             d="m 31.04,20.819998 0,-4.12 28.284271,28.284271 0,4.12 z"
             id="path10871" />
          <path
             inkscape:connector-curvature="0"
             style="fill:url(#linearGradient11035);fill-opacity:1"
             d="m 31.04,16.699998 2.96,0 28.284271,28.284271 -2.96,0 z"
             id="path10873" />
          <path
             inkscape:connector-curvature="0"
             style="fill:url(#linearGradient11035);fill-opacity:1"
             d="m 34,16.699998 0,4 28.284271,28.284271 0,-4 z"
             id="path10875" />
          <path
             inkscape:connector-curvature="0"
             style="fill:url(#linearGradient11035);fill-opacity:1"
             d="m 34,20.699998 c 1.066654,0.05336 2.039986,0.18669 2.92,0.4 l 28.284271,28.284271 c -0.880014,-0.21331 -1.853346,-0.34664 -2.92,-0.4 z"
             id="path10877" />
          <path
             inkscape:connector-curvature="0"
             style="fill:url(#linearGradient11035);fill-opacity:1"
             d="m 36.92,21.099998 c 0.906651,0.18669 1.62665,0.38669 2.16,0.6 l 28.284271,28.284271 c -0.53335,-0.21331 -1.253349,-0.41331 -2.16,-0.6 z"
             id="path10879" />
          <path
             inkscape:connector-curvature="0"
             style="fill:url(#linearGradient11035);fill-opacity:1"
             d="m 39.08,21.699998 -0.68,2.8 28.284271,28.284271 0.68,-2.8 z"
             id="path10881" />
          <path
             inkscape:connector-curvature="0"
             style="fill:url(#linearGradient11035);fill-opacity:1"
             d="m 38.4,24.499998 c -0.560016,-0.213313 -1.266682,-0.426646 -2.12,-0.64 l 28.284271,28.284271 c 0.853318,0.213354 1.559984,0.426687 2.12,0.64 z"
             id="path10883" />
          <path
             inkscape:connector-curvature="0"
             style="fill:url(#linearGradient11035);fill-opacity:1"
             d="m 36.28,23.859998 c -0.853347,-0.239979 -1.933346,-0.359979 -3.24,-0.36 l 28.284271,28.284271 c 1.306654,2.1e-5 2.386653,0.120021 3.24,0.36 z"
             id="path10885" />
          <path
             inkscape:connector-curvature="0"
             style="fill:url(#linearGradient11035);fill-opacity:1"
             d="m 33.04,23.499998 c -1.44001,2.1e-5 -2.546675,0.266687 -3.32,0.8 l 28.284271,28.284271 c 0.773325,-0.533313 1.87999,-0.799979 3.32,-0.8 z"
             id="path10887" />
          <path
             inkscape:connector-curvature="0"
             style="fill:url(#linearGradient11035);fill-opacity:1"
             d="m 29.72,24.299998 c -0.746674,0.533353 -1.120007,1.306686 -1.12,2.32 l 28.284271,28.284271 c -7e-6,-1.013314 0.373326,-1.786647 1.12,-2.32 z"
             id="path10889" />
          <path
             inkscape:connector-curvature="0"
             style="fill:url(#linearGradient11035);fill-opacity:1"
             d="m 28.6,26.619998 c -7e-6,0.560017 0.10666,1.026684 0.32,1.4 l 28.284271,28.284271 c -0.21334,-0.373316 -0.320007,-0.839983 -0.32,-1.4 z"
             id="path10891" />
          <path
             inkscape:connector-curvature="0"
             style="fill:url(#linearGradient11035);fill-opacity:1"
             d="m 28.92,28.019998 c 0.119996,0.186675 0.263328,0.363346 0.429995,0.530012 l 28.284271,28.284272 c -0.166667,-0.166667 -0.309998,-0.343338 -0.429995,-0.530013 z"
             id="path10893" />
          <path
             inkscape:connector-curvature="0"
             style="fill:url(#linearGradient11035);fill-opacity:1"
             d="m 29.349995,28.55001 c 0.166666,0.166667 0.356668,0.323329 0.570005,0.469988 l 28.284271,28.284271 c -0.213337,-0.146658 -0.403339,-0.303321 -0.570005,-0.469987 z"
             id="path10895" />
          <path
             inkscape:connector-curvature="0"
             style="fill:url(#linearGradient11035);fill-opacity:1"
             d="m 29.92,29.019998 c 0.426658,0.293349 0.919991,0.560015 1.48,0.8 l 28.284271,28.284271 c -0.560009,-0.239985 -1.053342,-0.506651 -1.48,-0.8 z"
             id="path10897" />
          <path
             inkscape:connector-curvature="0"
             style="fill:url(#linearGradient11035);fill-opacity:1"
             d="m 31.4,29.819998 c 0.586657,0.240015 1.239989,0.493348 1.96,0.76 l 28.284271,28.284271 c -0.720011,-0.266652 -1.373343,-0.519985 -1.96,-0.76 z"
             id="path10899" />
          <path
             inkscape:connector-curvature="0"
             style="fill:url(#linearGradient11035);fill-opacity:1"
             d="m 33.36,30.579998 c 0.906654,0.34668 1.786654,0.720013 2.64,1.12 l 28.284271,28.284271 c -0.853346,-0.399987 -1.733346,-0.77332 -2.64,-1.12 z"
             id="path10901" />
          <path
             inkscape:connector-curvature="0"
             style="fill:url(#linearGradient11035);fill-opacity:1"
             d="m 36,31.699998 c 0.853319,0.373346 1.599984,0.826679 2.24,1.36 l 28.284271,28.284271 c -0.640016,-0.533321 -1.386681,-0.986654 -2.24,-1.36 z"
             id="path10903" />
          <path
             inkscape:connector-curvature="0"
             style="fill:url(#linearGradient11035);fill-opacity:1"
             d="m 38.24,33.059998 c 0.142198,0.118504 0.277814,0.242273 0.406848,0.371307 l 28.284271,28.284271 c -0.129034,-0.129034 -0.26465,-0.252803 -0.406848,-0.371307 z"
             id="path10905" />
          <path
             inkscape:connector-curvature="0"
             style="fill:url(#linearGradient11035);fill-opacity:1"
             d="m 38.646848,33.431305 c 0.451705,0.451705 0.822756,0.967936 1.113152,1.548693 l 28.284271,28.284271 c -0.290396,-0.580756 -0.661446,-1.096987 -1.113152,-1.548693 z"
             id="path10907" />
          <path
             inkscape:connector-curvature="0"
             style="fill:url(#linearGradient11035);fill-opacity:1"
             d="m 39.76,34.979998 c 0.399982,0.746676 0.599982,1.640008 0.6,2.68 l 28.284271,28.284271 c -1.8e-5,-1.039992 -0.200018,-1.933324 -0.6,-2.68 z"
             id="path10909" />
          <path
             inkscape:connector-curvature="0"
             style="fill:url(#linearGradient11035);fill-opacity:1"
             d="m 40.36,37.659998 c -1.8e-5,1.573339 -0.520018,2.906671 -1.56,4 l 28.284271,28.284271 c 1.039982,-1.093329 1.559982,-2.426661 1.56,-4 z"
             id="path10911" />
          <path
             inkscape:connector-curvature="0"
             style="fill:url(#linearGradient11035);fill-opacity:1"
             d="m 38.8,41.659998 c -1.040016,1.093335 -2.640014,1.773334 -4.8,2.04 l 28.284271,28.284271 c 2.159986,-0.266666 3.759984,-0.946665 4.8,-2.04 z"
             id="path10913" />
          <path
             inkscape:connector-curvature="0"
             style="fill:url(#linearGradient11035);fill-opacity:1"
             d="m 34,43.699998 0,4.6 28.284271,28.284271 0,-4.6 z"
             id="path10915" />
          <path
             inkscape:connector-curvature="0"
             style="fill:url(#linearGradient11035);fill-opacity:1"
             d="m 34,48.299998 -2.96,0 28.284271,28.284271 2.96,0 z"
             id="path10917" />
          <path
             inkscape:connector-curvature="0"
             style="fill:url(#linearGradient11035);fill-opacity:1"
             d="m 31.04,48.299998 0,-4.48 28.284271,28.284271 0,4.48 z"
             id="path10919" />
          <path
             inkscape:connector-curvature="0"
             style="fill:url(#linearGradient11035);fill-opacity:1"
             d="m 31.04,43.819998 c -1.680007,-0.05333 -3.040006,-0.239999 -4.08,-0.56 l 28.284271,28.284271 c 1.039994,0.320001 2.399993,0.50667 4.08,0.56 z"
             id="path10921" />
          <path
             inkscape:connector-curvature="0"
             style="fill:url(#linearGradient11035);fill-opacity:1"
             d="m 26.96,43.259998 c -1.040004,-0.319998 -1.813336,-0.626665 -2.32,-0.92 l 28.284271,28.284271 c 0.506664,0.293335 1.279996,0.600002 2.32,0.92 z"
             id="path10923" />
          <path
             inkscape:connector-curvature="0"
             style="fill:url(#linearGradient11035);fill-opacity:1"
             d="m 24.64,42.339998 0.88,-2.76 28.284271,28.284271 -0.88,2.76 z"
             id="path10925" />
          <path
             inkscape:connector-curvature="0"
             style="fill:url(#linearGradient11035);fill-opacity:1"
             d="m 25.52,39.579998 c 0.719996,0.346671 1.573328,0.680004 2.56,1 l 28.284271,28.284271 c -0.986672,-0.319996 -1.840004,-0.653329 -2.56,-1 z"
             id="path10927" />
          <path
             inkscape:connector-curvature="0"
             style="fill:url(#linearGradient11035);fill-opacity:1"
             d="m 28.08,40.579998 c 0.98666,0.293337 2.226658,0.440004 3.72,0.44 l 28.284271,28.284271 c -1.493342,4e-6 -2.73334,-0.146663 -3.72,-0.44 z"
             id="path10929" />
        </g>
        <path
           inkscape:connector-curvature="0"
           d="m 31.8,41.019998 c 0.959989,4e-6 1.759988,-0.06666 2.4,-0.2 0.666654,-0.159996 1.186653,-0.373329 1.56,-0.64 0.373319,-0.293329 0.639986,-0.626662 0.8,-1 0.159985,-0.399994 0.239985,-0.82666 0.24,-1.28 -1.5e-5,-0.666659 -0.160015,-1.226659 -0.48,-1.68 -0.320014,-0.479991 -0.760014,-0.893324 -1.32,-1.24 -0.533346,-0.373323 -1.146678,-0.693323 -1.84,-0.96 -0.693344,-0.293322 -1.413343,-0.573322 -2.16,-0.84 -0.720008,-0.266655 -1.440008,-0.559988 -2.16,-0.88 -0.693339,-0.319987 -1.320005,-0.706654 -1.88,-1.16 -0.533338,-0.479986 -0.973337,-1.039986 -1.32,-1.68 -0.34667,-0.666651 -0.520003,-1.479983 -0.52,-2.44 -3e-6,-1.706647 0.506663,-3.093313 1.52,-4.16 1.013328,-1.066644 2.479993,-1.746643 4.4,-2.04 l 0,-4.12 2.96,0 0,4 c 1.066654,0.05336 2.039986,0.18669 2.92,0.4 0.906651,0.18669 1.62665,0.38669 2.16,0.6 l -0.68,2.8 c -0.560016,-0.213313 -1.266682,-0.426646 -2.12,-0.64 -0.853347,-0.239979 -1.933346,-0.359979 -3.24,-0.36 -1.44001,2.1e-5 -2.546675,0.266687 -3.32,0.8 -0.746674,0.533353 -1.120007,1.306686 -1.12,2.32 -7e-6,0.560017 0.10666,1.026684 0.32,1.4 0.239993,0.37335 0.573326,0.706683 1,1 0.426658,0.293349 0.919991,0.560015 1.48,0.8 0.586657,0.240015 1.239989,0.493348 1.96,0.76 0.906654,0.34668 1.786654,0.720013 2.64,1.12 0.853319,0.373346 1.599984,0.826679 2.24,1.36 0.639983,0.533344 1.146649,1.173344 1.52,1.92 0.399982,0.746676 0.599982,1.640008 0.6,2.68 -1.8e-5,1.573339 -0.520018,2.906671 -1.56,4 -1.040016,1.093335 -2.640014,1.773334 -4.8,2.04 l 0,4.6 -2.96,0 0,-4.48 c -1.680007,-0.05333 -3.040006,-0.239999 -4.08,-0.56 -1.040004,-0.319998 -1.813336,-0.626665 -2.32,-0.92 l 0.88,-2.76 c 0.719996,0.346671 1.573328,0.680004 2.56,1 0.98666,0.293337 2.226658,0.440004 3.72,0.44"
           style="font-variant:normal;font-stretch:normal;fill:url(#linearGradient11035);fill-opacity:1;font-family:Ubuntu Mono;-inkscape-font-specification:Ubuntu Mono"
           id="path4158" />
      </g>
    </g>
  </g>
  <g
     inkscape:groupmode="layer"
     id="layer2"
     inkscape:label="Infinite Shadow"
     style="display:none"
     sodipodi:insensitive="true">
    <g
       style="font-size:40px;font-style:normal;font-weight:normal;line-height:125%;letter-spacing:0px;word-spacing:0px;fill:#ff00ff;fill-opacity:1;stroke:none;font-family:Sans"
       id="text3809-4"
       transform="translate(20.64,12.700001)">
      <path
         d="m 11.16,28.319999 c 0.95999,4e-6 1.759989,-0.06666 2.4,-0.2 0.666654,-0.159996 1.186654,-0.373329 1.56,-0.64 0.37332,-0.293328 0.130313,-0.109688 0.130313,-0.109688 L 6.32,18.439999 C 5.7866628,17.960013 5.3466632,17.400014 5,16.759999 4.6533306,16.093348 4.4703655,15.308077 4.4703681,14.34806 c -2.6e-6,-1.706647 0.5066636,-3.093313 1.52,-4.16 C 7.0036963,9.1214166 8.4703615,8.4414173 10.390368,8.1480606 l 0,-4.12 2.96,0 c 0,0 16.341682,16.2418394 24.494734,24.3805254 -3.099151,8.473693 -8.918938,14.309194 -17.518074,17.449568 L 3.9903681,29.66806 4.88,26.879999 c 0.7199963,0.346671 1.5733288,0.680004 2.56,1 0.9866601,0.293337 2.2266589,0.440004 3.72,0.44"
         style="font-variant:normal;font-stretch:normal;fill:url(#linearGradient3880);fill-opacity:1;font-family:Ubuntu Mono;-inkscape-font-specification:Ubuntu Mono"
         id="path3820"
         inkscape:connector-curvature="0"
         sodipodi:nodetypes="ccccccccccccccccc" />
    </g>
  </g>
  <g
     inkscape:groupmode="layer"
     id="layer3"
     inkscape:label="Dollar"
     style="display:inline"
     sodipodi:insensitive="true">
    <text
       xml:space="preserve"
       style="font-size:40px;font-style:normal;font-weight:normal;line-height:125%;letter-spacing:0px;word-spacing:0px;fill:#ffffff;fill-opacity:1;stroke:none;font-family:Sans"
       x="22.48"
       y="44.419998"
       id="text3809"
       sodipodi:linespacing="125%"><tspan
         sodipodi:role="line"
         id="tspan3811"
         x="22.48"
         y="44.419998"
         style="font-style:normal;font-variant:normal;font-weight:normal;font-stretch:normal;fill:#ffffff;fill-opacity:1;font-family:Ubuntu Mono;-inkscape-font-specification:Ubuntu Mono">$</tspan></text>
  </g>
</svg>
